<?xml version="1.0" encoding="UTF-8" standalone="no"?>
<!DOCTYPE svg PUBLIC "-//W3C//DTD SVG 1.1//EN"
 "http://www.w3.org/Graphics/SVG/1.1/DTD/svg11.dtd">
<!-- Generated by graphviz version 2.44.1 (20200629.0846)
 -->
<!-- Title: dependencies Pages: 1 -->
<svg width="918pt" height="396pt"
 viewBox="0.00 0.00 918.00 395.59" xmlns="http://www.w3.org/2000/svg" xmlns:xlink="http://www.w3.org/1999/xlink">
<g id="graph0" class="graph" transform="scale(1 1) rotate(0) translate(4 391.59)">
<title>dependencies</title>
<polygon fill="white" stroke="transparent" points="-4,4 -4,-391.59 914,-391.59 914,4 -4,4"/>
<text text-anchor="start" x="434.01" y="-42.4" font-family="sans-serif" font-weight="bold" font-size="14.00">Legend</text>
<polygon fill="#ffffb3" stroke="transparent" points="221,-10 221,-30 241,-30 241,-10 221,-10"/>
<text text-anchor="start" x="244.63" y="-15.4" font-family="sans-serif" font-size="14.00"> &#160;Declarations</text>
<polygon fill="#8dd3c7" stroke="transparent" points="334,-10 334,-30 354,-30 354,-10 334,-10"/>
<text text-anchor="start" x="357.73" y="-15.4" font-family="sans-serif" font-size="14.00"> &#160;Module</text>
<polygon fill="#80b1d3" stroke="transparent" points="420,-10 420,-30 440,-30 440,-10 420,-10"/>
<text text-anchor="start" x="443.78" y="-15.4" font-family="sans-serif" font-size="14.00"> &#160;Bootstrap</text>
<polygon fill="#fdb462" stroke="transparent" points="517,-10 517,-30 537,-30 537,-10 517,-10"/>
<text text-anchor="start" x="540.67" y="-15.4" font-family="sans-serif" font-size="14.00"> &#160;Providers</text>
<polygon fill="#fb8072" stroke="transparent" points="613,-10 613,-30 633,-30 633,-10 613,-10"/>
<text text-anchor="start" x="636.73" y="-15.4" font-family="sans-serif" font-size="14.00"> &#160;Exports</text>
<g id="clust1" class="cluster">
<title>cluster_NgxEditorModule</title>
<polygon fill="none" stroke="black" stroke-dasharray="1,5" points="8,-70 8,-379.59 902,-379.59 902,-70 8,-70"/>
</g>
<g id="clust2" class="cluster">
<title>cluster_NgxEditorModule_declarations</title>
<polygon fill="none" stroke="black" points="377,-189.59 377,-241.59 533,-241.59 533,-189.59 377,-189.59"/>
</g>
<g id="clust3" class="cluster">
<title>cluster_NgxEditorModule_NgxEditorComponent_providers</title>
<polygon fill="none" stroke="black" points="16,-78 16,-176.59 894,-176.59 894,-78 16,-78"/>
</g>
<g id="clust5" class="cluster">
<title>cluster_NgxEditorModule_exports</title>
<polygon fill="none" stroke="black" points="375,-319.59 375,-371.59 535,-371.59 535,-319.59 375,-319.59"/>
</g>
<!-- NgxEditorComponent -->
<g id="node1" class="node">
<title>NgxEditorComponent</title>
<polygon fill="#ffffb3" stroke="black" points="525.43,-233.59 384.57,-233.59 384.57,-197.59 525.43,-197.59 525.43,-233.59"/>
<text text-anchor="middle" x="455" y="-211.39" font-family="Times,serif" font-size="14.00">NgxEditorComponent</text>
</g>
<!-- NgxEditorModule -->
<g id="node2" class="node">
<title>NgxEditorModule</title>
<polygon fill="#8dd3c7" stroke="black" points="514.15,-298.59 511.15,-302.59 490.15,-302.59 487.15,-298.59 395.85,-298.59 395.85,-262.59 514.15,-262.59 514.15,-298.59"/>
<text text-anchor="middle" x="455" y="-276.39" font-family="Times,serif" font-size="14.00">NgxEditorModule</text>
</g>
<!-- NgxEditorComponent&#45;&gt;NgxEditorModule -->
<g id="edge1" class="edge">
<title>NgxEditorComponent&#45;&gt;NgxEditorModule</title>
<path fill="none" stroke="black" d="M455,-233.7C455,-233.7 455,-252.58 455,-252.58"/>
<polygon fill="black" stroke="black" points="451.5,-252.58 455,-262.58 458.5,-252.58 451.5,-252.58"/>
</g>
<!-- NgxEditorComponent  -->
<g id="node4" class="node">
<title>NgxEditorComponent </title>
<polygon fill="#fb8072" stroke="black" points="526.93,-363.59 383.07,-363.59 383.07,-327.59 526.93,-327.59 526.93,-363.59"/>
<text text-anchor="middle" x="455" y="-341.39" font-family="Times,serif" font-size="14.00">NgxEditorComponent </text>
</g>
<!-- NgxEditorModule&#45;&gt;NgxEditorComponent  -->
<g id="edge3" class="edge">
<title>NgxEditorModule&#45;&gt;NgxEditorComponent </title>
<path fill="none" stroke="black" stroke-dasharray="5,2" d="M455,-298.7C455,-298.7 455,-317.58 455,-317.58"/>
<polygon fill="black" stroke="black" points="451.5,-317.58 455,-327.58 458.5,-317.58 451.5,-317.58"/>
</g>
<!-- {
 &#160;&#160;&#160;provide: NG_VALUE_ACCESSOR, useExisting: forwardRef(() =&gt; NgxEditorComponent), multi: true
} -->
<g id="node3" class="node">
<title>{
 &#160;&#160;&#160;provide: NG_VALUE_ACCESSOR, useExisting: forwardRef(() =&gt; NgxEditorComponent), multi: true
}</title>
<ellipse fill="#fdb462" stroke="black" cx="455" cy="-127.3" rx="431.1" ry="41.09"/>
<text text-anchor="middle" x="455" y="-139.9" font-family="Times,serif" font-size="14.00">{</text>
<text text-anchor="middle" x="455" y="-123.1" font-family="Times,serif" font-size="14.00"> &#160;&#160;&#160;provide: NG_VALUE_ACCESSOR, useExisting: forwardRef(() =&gt; NgxEditorComponent), multi: true</text>
<text text-anchor="middle" x="455" y="-106.3" font-family="Times,serif" font-size="14.00">}</text>
</g>
<!-- {
 &#160;&#160;&#160;provide: NG_VALUE_ACCESSOR, useExisting: forwardRef(() =&gt; NgxEditorComponent), multi: true
}&#45;&gt;NgxEditorComponent -->
<g id="edge2" class="edge">
<title>{
 &#160;&#160;&#160;provide: NG_VALUE_ACCESSOR, useExisting: forwardRef(() =&gt; NgxEditorComponent), multi: true
}&#45;&gt;NgxEditorComponent</title>
<path fill="none" stroke="black" d="M455,-168.6C455,-168.6 455,-187.26 455,-187.26"/>
<polygon fill="black" stroke="black" points="451.5,-187.26 455,-197.26 458.5,-187.26 451.5,-187.26"/>
</g>
</g>
</svg>
